<?xml version="1.0" encoding="utf-8"?>
<!-- Generator: Adobe Illustrator 18.1.0, SVG Export Plug-In . SVG Version: 6.00 Build 0)  -->
<svg version="1.1" id="Layer_1" xmlns="http://www.w3.org/2000/svg" xmlns:xlink="http://www.w3.org/1999/xlink" x="0px" y="0px"
	 viewBox="0 0 500 500" enable-background="new 0 0 500 500" xml:space="preserve">
<g>
	<path fill="#010101" d="M204.1,77.7c-0.4,0-0.9,0-1.2,0.1C134,95,84.9,123.7,56.2,163.4c-0.2,0.2-0.4,0.5-0.5,0.7
		c-7.6,10.5-13.8,21.8-18.4,33.7C-2.2,298.8,73.1,415.2,76.3,420.1c0.4,0.6,0.9,1.1,1.5,1.5c53.5,32,103.6,48.1,148.8,48.1
		c7.6,0,14.8-0.5,21.9-1.4c0.9,0.9,2,1.4,3.2,1.4c0.1,0,0.4,0,0.5,0c1.6-0.1,2.9-1.1,3.5-2.4c49.6-8.2,85.5-36.6,109.9-65.6
		c0.9-0.5,1.6-1.4,2-2.4c28.6-35,40.9-70,41.2-70.8c21.6-67.1,17.3-122.5-12.7-165C338.6,82.4,209.5,77.8,204.1,77.7z M45.9,201.3
		c3.7-9.5,8.5-18.4,13.9-26.9c7.6,11.1,17.5,30.6,9.2,41.9c-6,8-8,18.2-5.7,29.5c3,15.6,13.8,31.5,27.1,39.6
		c1.9,1.1,2.6,3.9,2.2,8.1c-1.6,19.2-25.4,55.2-36.2,66.3C39.5,317,24.6,256.1,45.9,201.3z M257.3,457.3c3.6-12.7,20-39.3,92.9-52.7
		C328,428.1,297.5,449.7,257.3,457.3z M399.5,325.5c-0.2,0.6-11.9,34.2-39.3,67.7c-94.6,14.4-110.5,50.6-113,65.7
		c-6.7,0.9-13.6,1.2-20.8,1.2c-43.2,0-91.3-15.6-142.9-46.2c-2.5-4-12.7-20.8-23.1-44.9c13.8-11.6,39.9-52.7,41.8-74.5
		c0.9-10.2-3.2-14.9-6.7-17.2c-11.1-6.8-20.3-20.2-22.8-33.2c-1.1-6-1.4-14.7,4.1-22c13.8-18.5-4.2-46.5-10.9-55.7
		c27.7-36.2,74-62.8,138.6-79c5.3,0.2,43.5,2.5,85.7,16.3c-6.7,2.7-10.3,6.8-12.1,10.6c-3.6,7.5-2,17,4.4,24.9l3.5,4.4
		c11.7,14.4,42.9,53,48,71.2c6.3,22.5,47.5,33.8,61,37.6l1.9,0.5c4.2,1.2,10.9,9.6,14.9,15.8C410.1,286.3,406,305.3,399.5,325.5z
		 M412.5,253.5c-3.9-4.4-8.5-8.7-13.1-10l-1.9-0.5c-40.9-11.3-52.1-23.1-54.4-31c-5.6-20-36.6-58.2-49.9-74.5l-3.5-4.5
		c-4-4.9-5.2-10.7-3.2-14.8c2.5-5.2,10-8.1,21-8.3c30.1,12.2,60.3,30.7,80.4,59.1C404.9,192.8,413,221,412.5,253.5z"/>
	<path fill="#010101" d="M290,257.5c-9.1-7.5-22.8-18.9-37.8-46.5c-13.6-25-30.6-39.1-50.5-41.9c-32.7-4.7-60.7,22.9-62,24
		c-1.9,1.9-1.9,4.9,0,6.7c1.9,1.9,4.9,1.9,6.7,0c0.2-0.2,25.9-25.4,53.9-21.4c16.8,2.5,31.4,14.9,43.4,37.1
		c15.9,29.4,31.1,41.9,40.2,49.4c8.2,6.8,9,8,7.6,12.1c-2.4,7-12.1,19.5-29.5,42.5l-3.6,4.7c-1,1.2-1.2,2.9-0.7,4.4
		c2,6.1,6,24.3,0.6,34c-1.7,3.1-4.4,5.1-8.1,6.1c-3.4,0.9-6.3,0-9.5-2.7c-11.3-10-16.7-38.4-16.3-43.5c1.6-4.4-3.5-7.5-5.3-8.6
		c-0.5-0.2-45.7-23.8-57.6-18.5c-4.2-0.5-20.3-8.3-27.1-24.3c-8.3-19.7,1.1-44.2,27.5-70.9c1.9-1.9,1.9-4.9,0-6.7
		c-1.9-1.9-4.9-1.9-6.7,0c-34.8,35.2-36.1,61.6-31,77.4c6.7,20.8,26.6,32.2,35.7,33.8c2.9,0.5,4.7-0.1,6-1
		c7.6-0.1,41.8,13.7,49.1,18.8c-0.2,10.1,6,34.7,15.7,46.8c5.8,7.3,12.1,9.3,17,9.3c1.7,0,3.4-0.2,4.7-0.6
		c6.2-1.6,10.9-5.1,14.1-10.7c7-12.7,2.7-32.2,0.7-39.1l2.1-2.7C307,276.2,309.2,273.3,290,257.5z"/>
	<path fill="#010101" d="M72.2,437.2c-1.4,0-2.1,0.1-2.1,0.1c-0.5,0-1,0.2-1.5,0.4C68.1,438,55,444.1,55,464.8
		c0,11.9,5.6,35.2,18.5,35.2c9.2,0,14.8-11.9,18-21c5.3-14.3,5.3-25.4,0.2-32.8C86.3,438.1,76.2,437.2,72.2,437.2z M82.8,475.8
		c-5.3,14.3-9.1,14.8-9.2,14.8c-2.9,0-9-12.9-9-25.6c0-12.2,5.5-16.8,7.3-18c2.4-0.1,9,0.2,12.2,5C87.3,456.4,86.9,464.7,82.8,475.8
		z"/>
	<path fill="#010101" d="M467.9,323.9c-4.9-5.7-12.3-6.2-21.1-1c-13.8,8.2-20.4,19.5-17.4,30.4c3.2,11.7,17,19,36,19
		c1,0,2.1,0,3.2-0.1c2.2-0.1,4.2-1.7,4.5-4.1C473.5,364.7,477.6,335.1,467.9,323.9z M464.1,362.7c-13.6-0.2-23.5-4.9-25.5-11.9
		c-1.7-6.2,3.4-13.8,13.1-19.7c3.1-1.9,5.1-2.2,6.3-2.2c1.1,0,2,0.4,2.7,1.4C465.3,335.5,465.3,351.5,464.1,362.7z"/>
	<path fill="#010101" d="M85.6,45.7c2.6,0,4.7-2.1,4.7-4.7c0-2.6-2.1-4.7-4.7-4.7c-4,0-4.9-1.5-4.9-4.1c0-4.1,2.6-10,6.6-14.7
		c4.2-5,9.3-8,13.6-8c2.6,0,4.7-2.1,4.7-4.7S103.6,0,100.9,0C93.7,0,86.1,4.2,80,11.4c-5.5,6.5-8.8,14.4-8.8,20.8
		C71.3,40.5,76.8,45.7,85.6,45.7z"/>
</g>
</svg>
